<svg xmlns="http://www.w3.org/2000/svg" xmlns:xlink="http://www.w3.org/1999/xlink" version="1.1" style="" xml:space="preserve" width="43" height="23"><rect id="backgroundrect" width="100%" height="100%" x="0" y="0" fill="none" stroke="none"/>
<style type="text/css">
	.st0{fill:#FFFFFF;}
</style>

<g class="currentLayer" style=""><title>Layer 1</title><path class="st0" d="M11.299999999999955,0 l0.7000000000000002,3 c-3.5,0 -12,0 -12,0 s0.2,0.9 0.3000000000000001,1 c0.3000000000000001,0.5 0.6000000000000002,1.1 1,1.5 c1.9,2.2 5.2,3.1 7.9,3.6 c1.9,0.4 3.8,0.5 5.7,0.6000000000000002 l2.2,5.9 h1.2 l0.7000000000000002,1.9 h-1 l-1.7000000000000002,5.5 h16.7 l-1.7000000000000002,-5.5 h-1 l0.7000000000000002,-1.9 h1.2 c0,0 1,-6.1 4.1,-8.9 c3,-2.8 6.7,-3.2 6.7,-3.2 V0 H11.299999999999955 zM28.09999999999991,15.100000000000023 c-0.8,0.5 -1.7000000000000002,0.5 -2.3,0.9 c-0.4,0.2 -0.6000000000000002,0.8 -0.6000000000000002,0.8 c-0.4,-0.9 -0.9,-1.2 -1.5,-1.4 c-0.6000000000000002,-0.2 -1.7000000000000002,-0.1 -3.2,-1.4 c-1,-0.9 -1.1,-2.1 -1,-2.7 v-0.1 c0,-0.1 0,-0.1 0,-0.2 s0,-0.2 0.1,-0.3000000000000001 l0,0 l0,0 c0.2,-0.6000000000000002 0.7000000000000002,-1.2 1.7000000000000002,-1.6 c0,0 -0.7000000000000002,1 0,2 c0.4,0.6000000000000002 1.2,0.9 1.9,0.5 c0.3000000000000001,-0.2 0.5,-0.6000000000000002 0.6000000000000002,-0.9 c0.2,-0.7000000000000002 0.2,-1.4 -0.4,-1.9 c-0.9,-0.8 -1.1,-1.9 -0.5,-2.6 c0,0 0.2,0.9 1.1,0.8 c0.6000000000000002,0 0.6000000000000002,-0.2 0.4,-0.4 c-0.1,-0.3000000000000001 -1.4,-2.2 0.5,-3.6 c0,0 1.2,-0.8 2.6,-0.7000000000000002 c-0.8,0.1 -1.7000000000000002,0.6000000000000002 -2,1.4 c0,0 0,0 0,0.1 c-0.3000000000000001,0.8 -0.1,1.7000000000000002 0.5,2.5 c0.4,0.6000000000000002 0.9,1.1 1.1,1.9 c-0.3000000000000001,-0.1 -0.5,0 -0.7000000000000002,0.2 c-0.2,0.2 -0.3000000000000001,0.6000000000000002 -0.2,0.9 c0.1,0.2 0.3000000000000001,0.4 0.5,0.4 c0.1,0 0.1,0 0.2,0 h0.1 c0.3000000000000001,-0.1 0.5,-0.5 0.4,-0.8 c0.2,0.2 0.3000000000000001,0.7000000000000002 0.2,1 c0,0.3000000000000001 -0.2,0.6000000000000002 -0.3000000000000001,0.8 c-0.1,0.2 -0.3000000000000001,0.4 -0.4,0.6000000000000002 s-0.2,0.4 -0.2,0.6000000000000002 c0,0.2 0,0.5 0.1,0.7000000000000002 c0.4,0.6000000000000002 1.2,0 1.4,-0.5 c0.3000000000000001,-0.6000000000000002 0.2,-1.3 -0.2,-1.9 c0,0 0.7000000000000002,0.4 1.2,1.8 C29.59999999999991,13.200000000000045 28.90000000000009,14.600000000000023 28.09999999999991,15.100000000000023 z" id="svg_1"/></g></svg>