<?xml version="1.0" ?><svg enable-background="new 0 0 32 32" version="1.1" viewBox="0 0 32 32" xml:space="preserve" xmlns="http://www.w3.org/2000/svg" xmlns:xlink="http://www.w3.org/1999/xlink"><g id="style_2_copy"><g><g><g><polygon points="21.945,3.118 20.452,1.625 1.625,1.625 1.625,28.882 10.055,28.882 11.548,30.375 30.375,30.375 30.375,3.118           "/></g></g><g><polygon fill="#999999" points="1.625,4.777 8.492,4.777 9.617,3.652 16.529,3.652 18.047,5.17 23.497,5.17 23.497,4.92      18.151,4.92 16.632,3.402 1.625,3.402    "/></g><g><g><polygon fill="#999999" points="21.52,28.601 14.995,28.601 14.995,28.351 21.416,28.351 22.205,27.563 30.375,27.563       30.375,27.813 22.309,27.813     "/></g></g><g opacity="0.25"><rect fill="#FFFFFF" height="27.257" width="2.612" x="1.625" y="1.625"/></g><g opacity="0.25"><rect fill="#FFFFFF" height="1.375" width="2.612" x="1.625" y="3.402"/></g></g></g><g id="s2"><g><g><path d="M23.792,19.112V16c0-0.861-0.706-1.568-1.567-1.568h-0.773c-0.441,0-0.795-0.353-0.795-0.773     c0-3.002-2.45-5.452-5.452-5.452h-2.34c-2.56,0-4.657,2.097-4.657,4.657v6.246c0,2.56,2.097,4.68,4.657,4.68h6.246     C21.672,23.792,23.792,21.672,23.792,19.112L23.792,19.112z M12.865,18.317h5.452c0.442,0,0.795,0.354,0.795,0.795     c0,0.42-0.353,0.773-0.795,0.773h-5.452c-0.419,0-0.772-0.353-0.772-0.773C12.093,18.671,12.446,18.317,12.865,18.317     L12.865,18.317z M16.596,12.866c0,0.441-0.331,0.795-0.772,0.795h-2.958c-0.419,0-0.772-0.353-0.772-0.795     c0-0.419,0.353-0.772,0.772-0.772h2.958C16.265,12.093,16.596,12.446,16.596,12.866L16.596,12.866z" fill="#FFFFFF"/></g></g></g></svg>